<?xml version="1.0" encoding="UTF-8" standalone="no"?>
<svg
   xmlns:dc="http://purl.org/dc/elements/1.1/"
   xmlns:cc="http://creativecommons.org/ns#"
   xmlns:rdf="http://www.w3.org/1999/02/22-rdf-syntax-ns#"
   xmlns:svg="http://www.w3.org/2000/svg"
   xmlns="http://www.w3.org/2000/svg"
   xmlns:sodipodi="http://sodipodi.sourceforge.net/DTD/sodipodi-0.dtd"
   xmlns:inkscape="http://www.inkscape.org/namespaces/inkscape"
   inkscape:export-ydpi="300"
   inkscape:export-xdpi="300"
   inkscape:export-filename="/home/artsin/Documents/injex/applications.png.png"
   sodipodi:docname="applications.svg"
   inkscape:version="1.0 (5b275a35d9, 2020-05-03)"
   id="svg8"
   version="1.1"
   viewBox="0 0 297 210"
   height="210mm"
   width="297mm">
  <defs
     id="defs2">
    <clipPath
       clipPathUnits="userSpaceOnUse"
       id="clipPath831">
      <path
         d="M 0,850.39 H 963.78 V 0 H 0 Z"
         id="path829"
         inkscape:connector-curvature="0" />
    </clipPath>
    <clipPath
       clipPathUnits="userSpaceOnUse"
       id="clipPath935">
      <path
         d="M 0,850.39 H 963.78 V 0 H 0 Z"
         id="path933"
         inkscape:connector-curvature="0" />
    </clipPath>
    <clipPath
       clipPathUnits="userSpaceOnUse"
       id="clipPath1027">
      <path
         d="M 0,850.39 H 963.78 V 0 H 0 Z"
         id="path1025"
         inkscape:connector-curvature="0" />
    </clipPath>
    <clipPath
       clipPathUnits="userSpaceOnUse"
       id="clipPath11807">
      <path
         d="M 0,850.39 H 963.78 V 0 H 0 Z"
         id="path11805"
         inkscape:connector-curvature="0" />
    </clipPath>
  </defs>
  <sodipodi:namedview
     inkscape:guide-bbox="true"
     showguides="true"
     inkscape:document-rotation="0"
     inkscape:window-maximized="1"
     inkscape:window-y="0"
     inkscape:window-x="0"
     inkscape:window-height="1655"
     inkscape:window-width="2880"
     showgrid="false"
     inkscape:current-layer="layer1"
     inkscape:document-units="mm"
     inkscape:cy="439.34372"
     inkscape:cx="519.8949"
     inkscape:zoom="0.98994949"
     inkscape:pageshadow="2"
     inkscape:pageopacity="0.0"
     borderopacity="1.0"
     bordercolor="#666666"
     pagecolor="#ffffff"
     id="base">
    <sodipodi:guide
       id="guide10156"
       orientation="1,0"
       position="79.085811,177.18447" />
    <sodipodi:guide
       id="guide10428"
       orientation="1,0"
       position="64.734559,302.12284" />
  </sodipodi:namedview>
  <metadata
     id="metadata5">
    <rdf:RDF>
      <cc:Work
         rdf:about="">
        <dc:format>image/svg+xml</dc:format>
        <dc:type
           rdf:resource="http://purl.org/dc/dcmitype/StillImage" />
        <dc:title></dc:title>
      </cc:Work>
    </rdf:RDF>
  </metadata>
  <g
     id="layer1"
     inkscape:groupmode="layer"
     inkscape:label="Layer 1">
    <path
       id="path10056"
       d="m 269.47972,211.10039 c -66.52148,-0.15247 -148.93087,-0.43094 -149.01985,-0.50353 -0.0574,-0.0468 19.99705,-57.10297 44.56542,-126.791456 l 44.66976,-126.706336 44.64401,0.0647 c 24.55419,0.03559 44.66617,0.08279 44.69328,0.10491 0.0271,0.02211 1.03855,54.556937 2.24765,121.188476 1.20911,66.631546 2.27033,123.766806 2.35828,126.967226 l 0.15991,5.81895 -7.16091,-0.0485 c -3.93847,-0.0267 -16.15937,-0.0691 -27.15755,-0.0944 z"
       style="fill:#f68712;fill-opacity:1;fill-rule:evenodd;stroke:none;stroke-width:0.176207;stroke-linecap:round;stroke-linejoin:round" />
    <g
       transform="matrix(1.8391682,0,0,1.8391682,264.37654,-332.63215)"
       id="g36456">
      <path
         d="m -19.223565,288.30715 h 0.236008 v 1.35149 h -0.236008 z"
         style="fill:#393536;fill-opacity:1;fill-rule:nonzero;stroke:none;stroke-width:0.352778"
         id="path937"
         inkscape:connector-curvature="0" />
      <path
         inkscape:connector-curvature="0"
         id="path941"
         style="fill:#393536;fill-opacity:1;fill-rule:nonzero;stroke:none;stroke-width:0.352778"
         d="m -18.223652,288.66963 v 0.98919 h -0.225072 v -1.22696 c 0,-0.0434 0.01094,-0.078 0.03281,-0.10337 0.02152,-0.0254 0.05115,-0.0381 0.08819,-0.0381 0.01729,0 0.03422,0.004 0.05009,0.0113 0.01623,0.007 0.03281,0.0198 0.05045,0.0374 l 0.953206,0.94579 v -0.98883 h 0.225072 v 1.2379 c 0,0.0448 -0.01094,0.0794 -0.03246,0.10406 -0.02187,0.0247 -0.04974,0.0374 -0.08467,0.0374 -0.03845,0 -0.07408,-0.0166 -0.10795,-0.0505 z" />
      <path
         inkscape:connector-curvature="0"
         id="path945"
         style="fill:#393536;fill-opacity:1;fill-rule:nonzero;stroke:none;stroke-width:0.352778"
         d="m -16.522805,289.65871 v -0.23636 h 1.013178 c 0.06315,0 0.111478,-0.0159 0.145697,-0.0483 0.03422,-0.0317 0.05115,-0.0751 0.05115,-0.12806 0,-0.0582 -0.01693,-0.10195 -0.05115,-0.13123 -0.03422,-0.0289 -0.08255,-0.0434 -0.145697,-0.0434 h -0.620889 c -0.06315,0 -0.12065,-0.01 -0.171803,-0.0289 -0.0515,-0.0194 -0.09525,-0.0459 -0.130528,-0.0801 -0.03528,-0.0339 -0.06244,-0.0748 -0.08184,-0.12171 -0.01905,-0.0469 -0.02858,-0.0984 -0.02858,-0.15417 0,-0.0547 0.0088,-0.10512 0.02716,-0.15169 0.01764,-0.0462 0.04445,-0.0864 0.07973,-0.11959 0.03528,-0.0335 0.07902,-0.06 0.13088,-0.079 0.05221,-0.0194 0.111831,-0.0289 0.178506,-0.0289 h 0.970491 v 0.23601 h -0.970491 c -0.05433,0 -0.09666,0.0148 -0.126295,0.0437 -0.02963,0.0293 -0.04445,0.0695 -0.04445,0.12171 0,0.0519 0.01517,0.0921 0.04551,0.12065 0.03034,0.0286 0.07126,0.043 0.123472,0.043 h 0.619125 c 0.137583,0 0.242005,0.0321 0.312914,0.0967 0.07126,0.0646 0.106891,0.16228 0.106891,0.29351 0,0.0571 -0.0085,0.10971 -0.02575,0.15805 -0.01764,0.0483 -0.04339,0.0903 -0.07796,0.12558 -0.03492,0.0353 -0.07867,0.0628 -0.131234,0.0825 -0.05256,0.0201 -0.1143,0.03 -0.184855,0.03 z" />
      <path
         inkscape:connector-curvature="0"
         id="path949"
         style="fill:#393536;fill-opacity:1;fill-rule:nonzero;stroke:none;stroke-width:0.352778"
         d="m -14.156548,289.65871 v -1.11548 h -0.513292 v -0.23601 h 1.262592 v 0.23601 h -0.513292 v 1.11548 z" />
      <path
         inkscape:connector-curvature="0"
         id="path953"
         style="fill:#393536;fill-opacity:1;fill-rule:nonzero;stroke:none;stroke-width:0.352778"
         d="m -11.699309,289.65871 -0.341842,-0.37536 h -0.50553 v -0.20849 h 0.563033 c 0.08573,0 0.149931,-0.0233 0.193322,-0.0698 0.04339,-0.0462 0.06491,-0.11359 0.06491,-0.20143 0,-0.0882 -0.02258,-0.15346 -0.06773,-0.19615 -0.04515,-0.043 -0.108655,-0.0642 -0.1905,-0.0642 h -0.736247 v 1.11548 h -0.234245 v -1.35149 h 0.970492 c 0.07691,0 0.145697,0.0113 0.206375,0.0346 0.06068,0.0226 0.112183,0.0557 0.154164,0.0984 0.04198,0.0427 0.07444,0.0942 0.09666,0.15487 0.02258,0.061 0.03351,0.12911 0.03351,0.20461 0,0.11289 -0.02434,0.20708 -0.07338,0.28363 -0.04904,0.0762 -0.117475,0.13088 -0.205316,0.16439 l 0.407105,0.41099 z" />
      <path
         inkscape:connector-curvature="0"
         id="path957"
         style="fill:#393536;fill-opacity:1;fill-rule:nonzero;stroke:none;stroke-width:0.352778"
         d="m -9.780904,288.30718 h 0.2303639 v 0.75494 c 0,0.10407 -0.013406,0.19438 -0.04057,0.272 -0.027517,0.0776 -0.070203,0.14181 -0.1284111,0.19261 -0.058208,0.0508 -0.1337027,0.0885 -0.2257777,0.11324 -0.092428,0.0247 -0.2042581,0.0374 -0.3354911,0.0374 -0.130175,0 -0.241653,-0.0127 -0.333728,-0.0374 -0.09243,-0.0247 -0.167569,-0.0624 -0.225778,-0.11324 -0.05821,-0.0508 -0.101248,-0.115 -0.128411,-0.19261 -0.02716,-0.0776 -0.04092,-0.16793 -0.04092,-0.272 v -0.75494 h 0.243769 v 0.75494 c 0,0.0677 0.0081,0.12595 0.02469,0.17463 0.01693,0.048 0.0441,0.0878 0.08184,0.11889 0.0381,0.031 0.08855,0.0536 0.151695,0.0677 0.06315,0.0141 0.141111,0.0215 0.234244,0.0215 0.09278,0 0.170745,-0.007 0.234245,-0.0215 0.063147,-0.0141 0.1135936,-0.0367 0.1513408,-0.0677 0.037747,-0.031 0.064911,-0.0709 0.081844,-0.11889 0.016933,-0.0487 0.025047,-0.10689 0.025047,-0.17463 z" />
      <path
         inkscape:connector-curvature="0"
         id="path961"
         style="fill:#393536;fill-opacity:1;fill-rule:nonzero;stroke:none;stroke-width:0.352778"
         d="m -7.4313687,289.65871 -0.2582333,-0.95003 -0.3831167,0.87947 c -0.013406,0.0282 -0.029986,0.0501 -0.049389,0.0656 -0.01905,0.0155 -0.043039,0.0236 -0.071261,0.0236 -0.055739,0 -0.096308,-0.03 -0.1210028,-0.0893 l -0.3809999,-0.87947 -0.2582334,0.95003 h -0.2324805 l 0.3474861,-1.27141 c 0.016228,-0.0646 0.055033,-0.097 0.1171222,-0.097 0.025047,0 0.047978,0.007 0.06985,0.0208 0.021519,0.0134 0.0381,0.0332 0.049036,0.0593 l 0.4166305,0.95567 0.4162778,-0.95567 c 0.022225,-0.0533 0.059972,-0.0801 0.1132417,-0.0801 0.05715,0 0.094897,0.0324 0.1135944,0.097 l 0.3457222,1.27141 z" />
      <path
         d="m -6.3365935,288.8723 h 0.7489472 v 0.19897 h -0.7489472 z m -0.4071055,0.78634 v -1.35149 h 1.2064999 v 0.23601 h -0.9722555 v 0.87912 h 0.9740194 v 0.23636 z"
         style="fill:#393536;fill-opacity:1;fill-rule:nonzero;stroke:none;stroke-width:0.352778"
         id="path963"
         inkscape:connector-curvature="0" />
      <path
         inkscape:connector-curvature="0"
         id="path967"
         style="fill:#393536;fill-opacity:1;fill-rule:nonzero;stroke:none;stroke-width:0.352778"
         d="m -4.8160155,288.66963 v 0.98919 h -0.2250722 v -1.22696 c 0,-0.0434 0.010936,-0.078 0.032808,-0.10337 0.02152,-0.0254 0.051153,-0.0381 0.088195,-0.0381 0.017286,0 0.033867,0.004 0.050094,0.0113 0.016228,0.007 0.032808,0.0198 0.050094,0.0374 l 0.9535584,0.94579 v -0.98883 h 0.2250722 v 1.2379 c 0,0.0448 -0.010936,0.0794 -0.032456,0.10406 -0.021872,0.0247 -0.050094,0.0374 -0.084667,0.0374 -0.038453,0 -0.074436,-0.0166 -0.10795,-0.0505 z" />
      <path
         inkscape:connector-curvature="0"
         id="path971"
         style="fill:#393536;fill-opacity:1;fill-rule:nonzero;stroke:none;stroke-width:0.352778"
         d="m -2.6821333,289.65871 v -1.11548 H -3.195425 v -0.23601 h 1.2625917 v 0.23601 H -2.446125 v 1.11548 z" />
      <path
         inkscape:connector-curvature="0"
         id="path975"
         style="fill:#393536;fill-opacity:1;fill-rule:nonzero;stroke:none;stroke-width:0.352778"
         d="m -1.4796197,289.65871 v -0.23636 h 1.01317776 c 0.0631472,0 0.11183055,-0.0159 0.14604999,-0.0483 0.0338667,-0.0317 0.0508,-0.0751 0.0508,-0.12806 0,-0.0582 -0.0169333,-0.10195 -0.0508,-0.13123 -0.0342194,-0.0289 -0.0829028,-0.0434 -0.14604999,-0.0434 H -1.0873308 c -0.063147,0 -0.1202972,-0.01 -0.1718028,-0.0289 -0.051505,-0.0194 -0.094897,-0.0459 -0.130175,-0.0801 -0.035278,-0.0339 -0.062794,-0.0748 -0.081844,-0.12171 -0.019403,-0.0469 -0.028928,-0.0984 -0.028928,-0.15417 0,-0.0547 0.00917,-0.10512 0.027164,-0.15169 0.017639,-0.0462 0.04445,-0.0864 0.079728,-0.11959 0.035278,-0.0335 0.079022,-0.06 0.1312333,-0.079 0.051858,-0.0194 0.1114778,-0.0289 0.1785055,-0.0289 h 0.9701389 v 0.23601 h -0.9701389 c -0.054681,0 -0.096661,0.0148 -0.1266472,0.0437 -0.029633,0.0293 -0.04445,0.0695 -0.04445,0.12171 0,0.0519 0.015169,0.0921 0.045508,0.12065 0.030339,0.0286 0.071614,0.043 0.1234723,0.043 h 0.61912496 c 0.13758333,0 0.24200555,0.0321 0.31326666,0.0967 0.07090833,0.0646 0.10653888,0.16228 0.10653888,0.29351 0,0.0571 -0.0084667,0.10971 -0.02575278,0.15805 -0.01763888,0.0483 -0.04339166,0.0903 -0.07796388,0.12558 -0.034925,0.0353 -0.0786695,0.0628 -0.13123333,0.0825 -0.0525639,0.0201 -0.1143,0.03 -0.18485555,0.03 z" />
      <path
         inkscape:connector-curvature="0"
         id="path979"
         style="fill:#393536;fill-opacity:1;fill-rule:nonzero;stroke:none;stroke-width:0.352778"
         d="m -18.067936,287.8714 c -0.297392,0 -0.545042,-0.0247 -0.743303,-0.0744 -0.198261,-0.0494 -0.357011,-0.12841 -0.475897,-0.23777 -0.118886,-0.10865 -0.2032,-0.25188 -0.252589,-0.42827 -0.04974,-0.17639 -0.07444,-0.39335 -0.07444,-0.65088 v -2.66453 h 0.898172 v 2.62855 c 0,0.11924 0.01058,0.21908 0.03246,0.30057 0.02187,0.0811 0.06032,0.14887 0.116064,0.20214 0.05539,0.0533 0.129822,0.0924 0.222955,0.11606 0.09313,0.0236 0.210961,0.0356 0.353836,0.0356 h 2.408414 v 0.77294 z" />
      <path
         inkscape:connector-curvature="0"
         id="path983"
         style="fill:#393536;fill-opacity:1;fill-rule:nonzero;stroke:none;stroke-width:0.352778"
         d="m -11.829379,285.59969 c 0,-0.10724 -0.02681,-0.17851 -0.08043,-0.21378 -0.05327,-0.036 -0.147461,-0.054 -0.282223,-0.054 h -1.474963 c -0.111125,0 -0.204259,0.005 -0.2794,0.0148 -0.0755,0.0102 -0.136173,0.0328 -0.181681,0.0688 -0.04551,0.0353 -0.07832,0.0871 -0.09807,0.15452 -0.01976,0.067 -0.02963,0.15839 -0.02963,0.2734 v 0.17251 h 2.426406 z m -2.426406,0.98707 v 0.14887 c 0,0.0991 0.0078,0.17851 0.02364,0.23813 0.01588,0.0589 0.04445,0.10583 0.08643,0.13935 0.04163,0.0339 0.09701,0.0564 0.166511,0.0684 0.06915,0.012 0.155575,0.018 0.258586,0.018 h 1.046692 v 0.67169 h -1.046692 c -0.511527,0 -0.8763,-0.097 -1.094316,-0.2914 -0.218017,-0.19403 -0.327025,-0.50518 -0.327025,-0.93345 v -0.74365 c 0,-0.2339 0.02258,-0.43075 0.06844,-0.59126 0.04551,-0.16051 0.124883,-0.28963 0.237772,-0.38664 0.112889,-0.097 0.262819,-0.16757 0.449086,-0.21132 0.186267,-0.0437 0.422275,-0.0653 0.707672,-0.0653 h 1.55822 c 0.230011,0 0.421216,0.0215 0.573969,0.0653 0.1524,0.0437 0.273403,0.10407 0.362656,0.18133 0.08925,0.0776 0.151694,0.17039 0.187325,0.27975 0.03563,0.10901 0.05362,0.22684 0.05362,0.35384 v 1.05833 z" />
      <path
         inkscape:connector-curvature="0"
         id="path987"
         style="fill:#393536;fill-opacity:1;fill-rule:nonzero;stroke:none;stroke-width:0.352778"
         d="m -10.330743,287.8714 v -1.86725 c 0,-0.24201 0.02787,-0.44803 0.08326,-0.61842 0.05539,-0.17039 0.14358,-0.31045 0.2645829,-0.4191 0.1210028,-0.10936 0.2765778,-0.18944 0.4670777,-0.2413 0.1901473,-0.0512 0.4219223,-0.0773 0.6956778,-0.0773 h 0.5767917 v 0.71967 h -0.5531556 c -0.1227666,0 -0.2261305,0.0102 -0.3090333,0.0296 -0.083256,0.0201 -0.1499306,0.0536 -0.1993194,0.10089 -0.049389,0.048 -0.085372,0.11325 -0.1072445,0.1965 -0.021872,0.0833 -0.032455,0.18838 -0.032455,0.31538 v 1.86126 z" />
      <path
         inkscape:connector-curvature="0"
         id="path991"
         style="fill:#393536;fill-opacity:1;fill-rule:nonzero;stroke:none;stroke-width:0.352778"
         d="m -4.9486599,287.8714 -1.8736027,-1.52224 v 1.52224 h -0.8918222 v -4.26402 h 0.8918222 v 2.53365 l 1.8616083,-1.49296 h 1.153936 l -2.0041305,1.55257 2.0574,1.67076 z" />
      <path
         d="m -3.3669102,284.73139 h 0.9041694 v 3.13973 h -0.9041694 z m 0.3033889,-0.2674 c -0.111125,0 -0.1894417,-0.0219 -0.23495,-0.0656 -0.045508,-0.0437 -0.068439,-0.11289 -0.068439,-0.20814 v -0.34466 c 0,-0.0956 0.02293,-0.16369 0.068439,-0.20532 0.045508,-0.042 0.123825,-0.0624 0.23495,-0.0624 h 0.2913944 c 0.1150055,0 0.1950861,0.0205 0.2409472,0.0624 0.045508,0.0416 0.068439,0.10972 0.068439,0.20532 v 0.34466 c 0,0.0953 -0.022931,0.1644 -0.068439,0.20814 -0.045861,0.0437 -0.1259417,0.0656 -0.2409472,0.0656 z"
         style="fill:#393536;fill-opacity:1;fill-rule:nonzero;stroke:none;stroke-width:0.352778"
         id="path993"
         inkscape:connector-curvature="0" />
      <path
         inkscape:connector-curvature="0"
         id="path997"
         style="fill:#393536;fill-opacity:1;fill-rule:nonzero;stroke:none;stroke-width:0.352778"
         d="m -1.5767747,287.8714 v -2.50366 H -2.028683 v -0.71967 h 0.4519083 v -0.90981 h 0.90381665 v 0.90981 h 1.01705831 v 0.71967 h -1.01705831 v 2.50366 z" />
      <path
         inkscape:connector-curvature="0"
         id="path1001"
         style="fill:#393536;fill-opacity:1;fill-rule:nonzero;stroke:none;stroke-width:0.352778"
         d="m -7.9253987,278.05702 c -0.2169583,-0.006 -0.3954639,-0.18944 -0.3996972,-0.4124 -0.00459,-0.24094 0.1760361,-0.41945 0.4187472,-0.41345 0.2310694,0.006 0.4018139,0.17709 0.4021667,0.40428 0,0.23601 -0.1908528,0.42721 -0.4212167,0.42157 m 0.415925,2.75519 h -0.8300861 v -0.83043 -1.23614 -0.5521 c 0.1157111,0.0871 0.2596444,0.13865 0.4148667,0.13865 0.1559277,0 0.2995083,-0.0515 0.4152194,-0.13865 z m -1.1066639,0 h -2.4800274 v -3.58669 h 0.830086 v 0.83009 1.33879 0.58738 h 1.6499414 z m 3.1160861,-2.11878 -1.4139333,-1.41393 c -0.058561,0.0166 -0.1220611,0.0261 -0.1890889,0.0279 h -0.013406 c -0.031397,0 -0.063147,-0.003 -0.097367,-0.008 -0.2582334,-0.0437 -0.4804834,-0.26494 -0.5284611,-0.52564 -0.00811,-0.0423 -0.011289,-0.0843 -0.00988,-0.12523 0.00212,-0.0593 0.013758,-0.11783 0.032808,-0.17357 0.011289,-0.0318 0.024342,-0.0624 0.039864,-0.0921 -0.063147,-0.007 -0.1217083,-0.0212 -0.1749778,-0.0434 -0.1280583,-0.0533 -0.2240139,-0.14993 -0.2758722,-0.27552 l -0.7888111,-0.78916 c -0.1795639,-0.17956 -0.4709583,-0.17956 -0.650875,0 l -3.4187691,3.41912 c -0.179917,0.17956 -0.179917,0.47131 0,0.65052 l 3.4187691,3.41913 c 0.1799167,0.17991 0.4713111,0.17991 0.650875,0 l 3.4191222,-3.41913 c 0.1795639,-0.17921 0.1795639,-0.47096 0,-0.65052" />
      <path
         inkscape:connector-curvature="0"
         id="path1005"
         style="fill:#393536;fill-opacity:1;fill-rule:nonzero;stroke:none;stroke-width:0.352778"
         d="m -7.080496,275.33332 c 0.206375,0.0141 0.3302,-0.096 0.3411361,-0.30057 0.00988,-0.19155 -0.099836,-0.30974 -0.2899833,-0.32349 -0.2060222,-0.0141 -0.3118556,0.11112 -0.3559528,0.30127 0.023989,0.18309 0.1125361,0.30974 0.3048,0.32279" />
      <path
         inkscape:connector-curvature="0"
         id="path1009"
         style="fill:#393536;fill-opacity:1;fill-rule:nonzero;stroke:none;stroke-width:0.352778"
         d="m -7.6289596,276.10951 c 0.187325,0.009 0.276225,-0.10548 0.3125611,-0.27234 -0.0254,-0.16652 -0.1192389,-0.28117 -0.2797528,-0.28646 -0.1718027,-0.006 -0.2995083,0.0931 -0.3012722,0.27975 -0.00141,0.16793 0.098425,0.27058 0.2684639,0.27905" />
      <path
         inkscape:connector-curvature="0"
         id="path1013"
         style="fill:#393536;fill-opacity:1;fill-rule:nonzero;stroke:none;stroke-width:0.352778"
         d="m -7.0953126,276.29553 c -0.1834444,-0.0187 -0.3735917,0.17357 -0.3802944,0.3623 -0.00106,0.0219 0.00106,0.0434 0.00529,0.0653 0.026811,0.14534 0.1552222,0.27799 0.3026834,0.30303 0.01905,0.003 0.0381,0.005 0.057503,0.005 0.2268361,-0.006 0.3481917,-0.13547 0.3788834,-0.3549 -0.01905,-0.2286 -0.1449917,-0.35807 -0.3640667,-0.38029" />
    </g>
    <g
       transform="translate(29.355409,0.24794801)"
       id="g36465">
      <text
         style="font-variant:normal;font-weight:bold;font-stretch:normal;font-size:11.9944px;font-family:Montserrat;-inkscape-font-specification:Montserrat-Bold;writing-mode:lr-tb;fill:#393536;fill-opacity:1;fill-rule:nonzero;stroke:none;stroke-width:0.352778"
         id="text1019"
         x="-20.406113"
         y="18.122276"><tspan
           id="tspan10048"
           y="18.122276"
           x="-20.406113"
           sodipodi:role="line"
           style="stroke-width:0.352778">Scope of applications</tspan></text>
      <path
         inkscape:connector-curvature="0"
         id="path3199"
         style="fill:none;stroke:#252928;stroke-width:0.141111;stroke-linecap:round;stroke-linejoin:miter;stroke-miterlimit:4;stroke-dasharray:none;stroke-opacity:1"
         d="m 81.022507,43.248766 0.10795,0.121003" />
      <path
         inkscape:connector-curvature="0"
         id="path4767"
         style="fill:none;stroke:#252928;stroke-width:0.141111;stroke-linecap:round;stroke-linejoin:miter;stroke-miterlimit:4;stroke-dasharray:none;stroke-opacity:1"
         d="m 81.062123,43.291135 -0.03951,-0.04233" />
    </g>
    <g
       transform="matrix(0.27648118,0,0,0.27648118,13.773905,33.231447)"
       id="g10132"
       style="stroke-width:1.72164;stroke-miterlimit:4;stroke-dasharray:none;enable-background:new">
      <g
         style="fill:none;stroke:#000000;stroke-width:1.72164;stroke-miterlimit:4;stroke-dasharray:none"
         id="g10090">
        <polygon
           style="stroke-width:1.72164;stroke-miterlimit:4;stroke-dasharray:none"
           points="0.549,81.381 15.301,68.1 34.172,74.252 38.284,93.641 23.532,106.922 4.661,100.77 "
           id="polygon10058" />
        <polyline
           style="stroke-width:1.72164;stroke-miterlimit:4;stroke-dasharray:none"
           points="67.375,68.198 67.375,88.043 84.573,97.963 101.734,88.043 101.734,68.198          84.535,58.278 "
           id="polyline10060" />
        <polyline
           style="stroke-width:1.72164;stroke-miterlimit:4;stroke-dasharray:none"
           points="47.143,36.075 54.228,25.66 73.978,24.159 82.618,33.452 "
           id="polyline10062" />
        <polyline
           style="stroke-width:1.72164;stroke-miterlimit:4;stroke-dasharray:none"
           points="86.652,44.129 84.535,58.278 67.375,68.198 48.924,60.972 44.962,48.146 "
           id="polyline10064" />
        <line
           style="stroke-width:1.72164;stroke-miterlimit:4;stroke-dasharray:none"
           x1="84.572998"
           y1="97.962997"
           x2="84.577003"
           y2="111.53"
           id="line10066" />
        <line
           style="stroke-width:1.72164;stroke-miterlimit:4;stroke-dasharray:none"
           x1="83.889999"
           y1="62.119999"
           x2="71.021004"
           y2="69.555"
           id="line10068" />
        <line
           style="stroke-width:1.72164;stroke-miterlimit:4;stroke-dasharray:none"
           x1="98.732002"
           y1="70.672997"
           x2="98.732002"
           y2="85.568001"
           id="line10070" />
        <line
           style="stroke-width:1.72164;stroke-miterlimit:4;stroke-dasharray:none"
           x1="83.918999"
           y1="94.122002"
           x2="71.021004"
           y2="86.685997"
           id="line10072" />
        <line
           style="stroke-width:1.72164;stroke-miterlimit:4;stroke-dasharray:none"
           x1="48.924"
           y1="60.971001"
           x2="34.172001"
           y2="74.251999"
           id="line10074" />
        <line
           style="stroke-width:1.72164;stroke-miterlimit:4;stroke-dasharray:none"
           x1="92.529999"
           y1="37.105"
           x2="106.43"
           y2="32.803001"
           id="line10076" />
        <line
           style="stroke-width:1.72164;stroke-miterlimit:4;stroke-dasharray:none"
           x1="7.947"
           y1="98.692001"
           x2="22.106001"
           y2="103.298"
           id="line10078" />
        <line
           style="stroke-width:1.72164;stroke-miterlimit:4;stroke-dasharray:none"
           x1="4.3979998"
           y1="81.952003"
           x2="15.466"
           y2="71.995003"
           id="line10080" />
        <line
           style="stroke-width:1.72164;stroke-miterlimit:4;stroke-dasharray:none"
           x1="31.747999"
           y1="77.299004"
           x2="34.84"
           y2="91.839996"
           id="line10082" />
        <line
           style="stroke-width:1.72164;stroke-miterlimit:4;stroke-dasharray:none"
           x1="51.062"
           y1="57.715"
           x2="47.855"
           y2="47.347"
           id="line10084" />
        <line
           style="stroke-width:1.72164;stroke-miterlimit:4;stroke-dasharray:none"
           x1="72.285004"
           y1="24.289"
           x2="78.239998"
           y2="10.912"
           id="line10086" />
        <line
           style="stroke-width:1.72164;stroke-miterlimit:4;stroke-dasharray:none"
           x1="75.089996"
           y1="25.354"
           x2="80.948997"
           y2="12.194"
           id="line10088" />
      </g>
      <g
         style="font-size:12px;font-family:'DejaVu Sans';fill:#000000;stroke-width:1.72164;stroke-miterlimit:4;stroke-dasharray:none"
         id="g10100">
        <text
           style="stroke-width:1.72164;stroke-miterlimit:4;stroke-dasharray:none"
           text-anchor="start"
           x="80.080002"
           y="122.25"
           id="text10092">Cl</text>
        <text
           style="stroke-width:1.72164;stroke-miterlimit:4;stroke-dasharray:none"
           text-anchor="middle"
           x="43.078999"
           y="46.547001"
           id="text10094">N</text>
        <text
           style="stroke-width:1.72164;stroke-miterlimit:4;stroke-dasharray:none"
           text-anchor="middle"
           x="87.469002"
           y="43.058998"
           id="text10096">N</text>
        <text
           style="stroke-width:1.72164;stroke-miterlimit:4;stroke-dasharray:none"
           text-anchor="middle"
           x="82.056"
           y="10.505"
           id="text10098">O</text>
      </g>
    </g>
    <text
       id="text10136"
       y="52.981983"
       x="64.224953"
       style="font-size:8.46667px;line-height:1.25;font-family:FontAwesome;-inkscape-font-specification:FontAwesome;letter-spacing:0px;word-spacing:0px;stroke-width:0.264583"
       xml:space="preserve"><tspan
         style="font-size:8.46667px;stroke-width:0.264583"
         y="52.981983"
         x="64.224953"
         id="tspan10134"
         sodipodi:role="line">Organic Chemistry</tspan></text>
    <text
       xml:space="preserve"
       style="font-size:8.46667px;line-height:1.25;font-family:FontAwesome;-inkscape-font-specification:FontAwesome;letter-spacing:0px;word-spacing:0px;stroke-width:0.264583"
       x="62.485741"
       y="103.22032"
       id="text10136-8"><tspan
         sodipodi:role="line"
         id="tspan10134-0"
         x="62.485741"
         y="103.22032"
         style="font-size:8.46667px;stroke-width:0.264583">Analytical Chemisty</tspan></text>
    <text
       xml:space="preserve"
       style="font-size:8.46667px;line-height:1.25;font-family:FontAwesome;-inkscape-font-specification:FontAwesome;letter-spacing:0px;word-spacing:0px;stroke-width:0.264583"
       x="64.092491"
       y="138.01935"
       id="text10136-4"><tspan
         sodipodi:role="line"
         id="tspan10134-5"
         x="64.092491"
         y="138.01935"
         style="font-size:8.46667px;stroke-width:0.264583">Pharmaceutical Industry</tspan></text>
    <text
       id="text10168"
       y="86.4506"
       x="76.627182"
       style="font-size:8.46667px;line-height:1.25;font-family:FontAwesome;-inkscape-font-specification:FontAwesome;letter-spacing:0px;word-spacing:0px;stroke-width:0.264583"
       xml:space="preserve"><tspan
         id="tspan10170"
         style="stroke-width:0.264583"
         y="86.4506"
         x="76.627182"
         sodipodi:role="line">• Long and precise synthesis,</tspan></text>
    <g
       transform="matrix(0.05103247,0,0,0.05103247,20.981905,114.99172)"
       id="g10235">
      <g
         id="g10178">
	<path
   d="M 102.404,143.164 64.769,105.529 96.119,74.18 c 11.27,-11.27 29.505,-11.27 40.775,10e-4 11.242,11.242 11.242,29.533 0,40.775 l -16.715,16.715 c 9.25,-4.244 19.515,-6.651 30.336,-6.701 l 10.439,-0.048 C 175.27,103.974 173.152,75.084 154.571,56.503 133.531,35.463 99.481,35.461 78.44,56.502 L 15.741,119.2 c -20.989,20.989 -20.989,55.142 0.001,76.132 10.169,10.168 23.687,15.768 38.067,15.768 8.299,0 16.306,-1.876 23.553,-5.407 -0.202,-2.16 -0.328,-4.341 -0.338,-6.55 -0.102,-21.42 9.109,-41.79 25.38,-55.979 z"
   id="path10174" />

	<path
   d="M 277.415,160.156 C 267.268,150.1 253.812,144.563 239.526,144.563 l -88.918,0.407 c -29.683,0.138 -53.72,24.398 -53.584,54.08 0.137,29.545 24.284,53.583 53.828,53.585 l 88.919,-0.405 c 29.683,-0.136 53.722,-24.396 53.586,-54.079 -0.065,-14.38 -5.728,-27.874 -15.942,-37.995 z m -126.426,67.479 h -0.135 c -15.824,-0.001 -28.757,-12.876 -28.83,-28.7 -0.073,-15.898 12.802,-28.892 28.699,-28.965 l 44.336,-0.203 c 0.028,6.25 0.235,51.32 0.265,57.666 z"
   id="path10176" />

</g>
      <g
         id="g10180">
</g>
      <g
         id="g10182">
</g>
      <g
         id="g10184">
</g>
      <g
         id="g10186">
</g>
      <g
         id="g10188">
</g>
      <g
         id="g10190">
</g>
      <g
         id="g10192">
</g>
      <g
         id="g10194">
</g>
      <g
         id="g10196">
</g>
      <g
         id="g10198">
</g>
      <g
         id="g10200">
</g>
      <g
         id="g10202">
</g>
      <g
         id="g10204">
</g>
      <g
         id="g10206">
</g>
      <g
         id="g10208">
</g>
    </g>
    <g
       transform="matrix(0.08014656,0,0,0.08014656,16.640884,146.70131)"
       id="g10298">
      <g
         id="g10241">
	<path
   d="m 113.893,62.167 v -28.5 C 113.893,15.073 98.82,0 80.226,0 61.632,0 46.559,15.073 46.559,33.667 v 28.5 c -6.903,0 -12.5,5.597 -12.5,12.5 0,6.903 5.597,12.5 12.5,12.5 v 149.668 c 0,6.868 1.879,13.604 5.433,19.481 l 21.002,34.725 c 1.531,2.531 4.274,4.078 7.232,4.078 2.958,0 5.701,-1.547 7.232,-4.078 l 21.002,-34.725 c 3.554,-5.877 5.433,-12.613 5.433,-19.481 V 87.167 c 6.903,0 12.5,-5.597 12.5,-12.5 0,-6.903 -5.597,-12.5 -12.5,-12.5 z m -25,174.668 c 0,2.307 -0.631,4.57 -1.824,6.543 l -6.843,11.313 -6.842,-11.312 c -1.194,-1.975 -1.825,-4.238 -1.825,-6.545 V 87.167 h 17.334 z"
   id="path10237" />

	<path
   d="m 248.56,62.167 v -28.5 C 248.56,15.073 233.487,0 214.893,0 196.299,0 181.226,15.073 181.226,33.667 v 28.5 c -6.903,0 -12.5,5.597 -12.5,12.5 0,6.903 5.597,12.5 12.5,12.5 v 108.393 41.275 c 0,6.867 1.879,13.604 5.433,19.48 l 21.002,34.725 c 1.531,2.531 4.275,4.078 7.232,4.078 2.958,0 5.701,-1.547 7.232,-4.078 l 21.002,-34.725 c 3.554,-5.876 5.433,-12.613 5.433,-19.48 V 195.56 87.167 c 6.903,0 12.5,-5.597 12.5,-12.5 0,-6.903 -5.597,-12.5 -12.5,-12.5 z m -25,133.393 H 206.226 V 87.167 h 17.334 z"
   id="path10239" />

</g>
      <g
         id="g10243">
</g>
      <g
         id="g10245">
</g>
      <g
         id="g10247">
</g>
      <g
         id="g10249">
</g>
      <g
         id="g10251">
</g>
      <g
         id="g10253">
</g>
      <g
         id="g10255">
</g>
      <g
         id="g10257">
</g>
      <g
         id="g10259">
</g>
      <g
         id="g10261">
</g>
      <g
         id="g10263">
</g>
      <g
         id="g10265">
</g>
      <g
         id="g10267">
</g>
      <g
         id="g10269">
</g>
      <g
         id="g10271">
</g>
    </g>
    <g
       transform="matrix(0.06225879,0,0,0.06225879,19.288895,77.248102)"
       id="g10370">
      <g
         id="g10310">
	<path
   d="m 228.249,84.815 c -6.564,-6.565 -17.209,-6.565 -23.773,0 -6.121,6.121 -6.528,15.786 -1.235,22.386 l -20.689,20.689 -8.887,-15.901 V 36.835 c 6.434,-2.358 11.034,-8.52 11.034,-15.771 0,-9.284 -7.526,-16.811 -16.811,-16.811 H 81.596 c -9.284,0 -16.811,7.526 -16.811,16.811 0,7.251 4.601,13.412 11.034,15.771 v 75.154 L 5.403,237.992 c -6.689,10.442 -7.209,23.65 -1.327,34.599 5.963,11.104 17.499,18.002 30.104,18.002 h 181.123 c 12.605,0 24.142,-6.898 30.103,-17.999 5.884,-10.949 5.365,-24.158 -1.325,-34.602 l -19.715,-35.277 37.193,-37.194 c 3.06,2.456 6.779,3.689 10.5,3.689 4.302,0 8.604,-1.642 11.887,-4.924 6.565,-6.564 6.565,-17.209 0,-23.773 z m -28.245,106.907 c -2.827,2.828 -4.056,6.751 -3.535,10.543 h -73.941 c 0.848,-2.288 1.334,-4.751 1.334,-7.334 0,-11.672 -9.462,-21.134 -21.134,-21.134 -11.671,0 -21.133,9.462 -21.133,21.134 0,2.583 0.486,5.046 1.335,7.334 H 54.009 l 45.223,-80.922 c 1.041,-1.863 1.588,-3.963 1.588,-6.098 v -77.37 h 47.846 v 77.37 c 0,2.135 0.547,4.234 1.588,6.098 l 18.538,33.172 c 1.911,3.42 5.314,5.745 9.194,6.284 3.878,0.535 7.786,-0.772 10.557,-3.543 l 32.3,-32.301 22.964,22.964 z"
   id="path10300" />

	<circle
   cx="264.10699"
   cy="53.158001"
   r="21.132999"
   id="circle10302" />

	<circle
   cx="279.47699"
   cy="102.788"
   r="15.369"
   id="circle10304" />

	<circle
   cx="140.881"
   cy="164.94701"
   r="15.369"
   id="circle10306" />

	<circle
   cx="123.863"
   cy="118.157"
   r="11.651"
   id="circle10308" />

</g>
      <g
         id="g10312">
</g>
      <g
         id="g10314">
</g>
      <g
         id="g10316">
</g>
      <g
         id="g10318">
</g>
      <g
         id="g10320">
</g>
      <g
         id="g10322">
</g>
      <g
         id="g10324">
</g>
      <g
         id="g10326">
</g>
      <g
         id="g10328">
</g>
      <g
         id="g10330">
</g>
      <g
         id="g10332">
</g>
      <g
         id="g10334">
</g>
      <g
         id="g10336">
</g>
      <g
         id="g10338">
</g>
      <g
         id="g10340">
</g>
    </g>
    <text
       xml:space="preserve"
       style="font-size:8.46667px;line-height:1.25;font-family:FontAwesome;-inkscape-font-specification:FontAwesome;text-align:end;letter-spacing:0px;word-spacing:0px;text-anchor:end;stroke-width:0.264583"
       x="265.92154"
       y="71.695503"
       id="text10168-9"><tspan
         id="tspan10426"
         sodipodi:role="line"
         x="265.92154"
         y="71.695503"
         style="text-align:end;text-anchor:end;stroke-width:0.264583">• Work with dangerous and toxic substances</tspan></text>
    <text
       id="text10168-9-8"
       y="119.90871"
       x="76.571945"
       style="font-size:8.46667px;line-height:1.25;font-family:FontAwesome;-inkscape-font-specification:FontAwesome;letter-spacing:0px;word-spacing:0px;stroke-width:0.264583"
       xml:space="preserve"><tspan
         id="tspan10170-3-2"
         style="stroke-width:0.264583"
         y="119.90871"
         x="76.571945"
         sodipodi:role="line">• Titration and other slow procedures,</tspan></text>
    <text
       xml:space="preserve"
       style="font-size:8.46667px;line-height:1.25;font-family:FontAwesome;-inkscape-font-specification:FontAwesome;letter-spacing:0px;word-spacing:0px;stroke-width:0.264583"
       x="76.596024"
       y="155.41078"
       id="text10168-1"><tspan
         sodipodi:role="line"
         x="76.596024"
         y="155.41078"
         style="stroke-width:0.264583"
         id="tspan10170-35">• Drug quality control</tspan></text>
  </g>
</svg>
