<?xml version="1.0" encoding="iso-8859-1"?>
<!-- Generator: Adobe Illustrator 19.0.0, SVG Export Plug-In . SVG Version: 6.00 Build 0)  -->
<svg version="1.1" id="Layer_1" xmlns="http://www.w3.org/2000/svg" xmlns:xlink="http://www.w3.org/1999/xlink" x="0px" y="0px"
	 viewBox="0 0 511.998 511.998" style="enable-background:new 0 0 511.998 511.998;" xml:space="preserve">
<g>
	<g>
		<path d="M467.712,316.477c-4.69,0-9.325,0.758-13.73,2.195l-17.173-29.742c9.228-8.306,14.709-20.268,14.709-32.932
			c0-12.676-5.485-24.641-14.705-32.93l17.172-29.746c4.408,1.438,9.042,2.195,13.728,2.195c24.42,0,44.286-19.866,44.286-44.286
			c0-5.975-1.171-11.776-3.482-17.242c-1.97-4.659-7.345-6.841-12.003-4.871c-4.659,1.97-6.841,7.344-4.871,12.003
			c1.351,3.196,2.036,6.598,2.036,10.109c0,14.318-11.648,25.966-25.966,25.966c-4.57,0-9.051-1.201-12.982-3.487
			c-8.008-4.624-12.983-13.238-12.983-22.479c0-14.318,11.648-25.966,25.966-25.966c2.641,0,5.241,0.392,7.73,1.166
			c4.83,1.502,9.965-1.196,11.466-6.027c1.502-4.83-1.196-9.965-6.027-11.466c-4.252-1.321-8.681-1.992-13.169-1.992
			c-24.42,0-44.286,19.866-44.286,44.286c0,12.66,5.48,24.621,14.698,32.921l-17.176,29.754c-4.405-1.438-9.034-2.195-13.716-2.195
			c-21.279,0-39.095,15.087-43.327,35.126h-34.331c-4.232-20.039-22.049-35.126-43.328-35.126c-4.689,0-9.324,0.757-13.729,2.194
			l-17.176-29.754c9.222-8.304,14.698-20.26,14.698-32.921c0-12.659-5.479-24.62-14.699-32.929l17.182-29.756
			c4.41,1.435,9.042,2.191,13.724,2.191c24.42,0,44.286-19.866,44.286-44.286c0-24.42-19.866-44.286-44.286-44.286
			s-44.286,19.866-44.286,44.286c0,12.652,5.478,24.613,14.7,32.926l-17.183,29.758c-4.41-1.435-9.042-2.191-13.724-2.191
			c-21.279,0-39.095,15.087-43.327,35.126h-34.319c-4.232-20.039-22.049-35.126-43.327-35.126c-24.42,0-44.286,19.866-44.286,44.286
			c0,12.652,5.477,24.61,14.69,32.917l-17.171,29.759c-4.408-1.438-9.04-2.195-13.727-2.195c-14.959,0-28.802,7.473-37.029,19.991
			c-2.779,4.227-1.604,9.908,2.623,12.686c4.228,2.779,9.906,1.604,12.686-2.623c4.828-7.346,12.948-11.732,21.719-11.732
			c4.57,0,9.051,1.201,12.979,3.486c8.011,4.629,12.987,13.243,12.987,22.48c0,9.244-4.976,17.863-12.995,22.497
			c-3.918,2.269-8.403,3.469-12.972,3.469c-12.283,0-22.981-8.714-25.438-20.721c-1.015-4.956-5.855-8.151-10.81-7.138
			c-4.956,1.014-8.152,5.854-7.138,10.81c4.193,20.494,22.44,35.369,43.386,35.369c4.683,0,9.315-0.756,13.723-2.19l17.175,29.758
			c-9.217,8.313-14.69,20.272-14.69,32.926c0,12.643,5.474,24.6,14.693,32.921L58.01,423.451c-4.41-1.435-9.042-2.191-13.724-2.191
			C19.866,421.26,0,441.126,0,465.546c0,24.42,19.866,44.286,44.286,44.286c24.42,0,44.286-19.866,44.286-44.286
			c0-12.648-5.478-24.608-14.703-32.925l17.173-29.747c4.413,1.436,9.048,2.192,13.736,2.192c24.42,0,44.286-19.866,44.286-44.286
			c0-24.426-19.866-44.298-44.286-44.298c-4.694,0-9.332,0.757-13.74,2.195l-17.168-29.747c9.224-8.311,14.701-20.271,14.701-32.929
			c0-12.657-5.481-24.617-14.7-32.921l17.168-29.756c4.41,1.438,9.047,2.195,13.739,2.195c21.279,0,39.095-15.087,43.327-35.126
			h34.319c4.232,20.039,22.049,35.126,43.327,35.126c4.686,0,9.32-0.757,13.728-2.195l17.178,29.758
			c-9.222,8.308-14.699,20.263-14.699,32.919c0,12.652,5.478,24.612,14.7,32.926l-17.178,29.751
			c-4.409-1.439-9.042-2.196-13.729-2.196c-21.28,0-39.098,15.093-43.328,35.138h-15.985c-5.059,0-9.16,4.101-9.16,9.16
			c0,5.059,4.101,9.16,9.16,9.16h15.985c4.232,20.039,22.049,35.126,43.327,35.126c4.683,0,9.315-0.756,13.726-2.191l17.182,29.747
			c-9.222,8.315-14.7,20.274-14.7,32.925c0,24.42,19.866,44.286,44.286,44.286c21.28,0,39.096-15.087,43.328-35.126h34.331
			c4.232,20.039,22.049,35.126,43.327,35.126c24.42,0,44.286-19.866,44.286-44.286c0-12.668-5.483-24.632-14.707-32.935
			l17.173-29.742c4.409,1.439,9.042,2.196,13.729,2.196c24.42,0,44.286-19.866,44.286-44.286
			C511.998,336.349,492.131,316.477,467.712,316.477z M286.244,20.484c14.318,0,25.966,11.648,25.966,25.966
			s-11.648,25.966-25.966,25.966c-4.569,0-9.054-1.199-12.976-3.471c-8.012-4.636-12.99-13.255-12.99-22.495
			C260.278,32.132,271.926,20.484,286.244,20.484z M44.284,491.508c-14.318,0-25.966-11.648-25.966-25.966
			s11.648-25.966,25.966-25.966c4.569,0,9.054,1.199,12.973,3.469c8.014,4.641,12.994,13.261,12.994,22.497
			C70.249,479.86,58.601,491.508,44.284,491.508z M91.807,338.269c3.906-2.272,8.392-3.472,12.971-3.472
			c14.317,0,25.965,11.654,25.965,25.978c0,14.318-11.648,25.966-25.966,25.966c-4.576,0-9.066-1.199-12.98-3.467
			c-8.01-4.644-12.985-13.265-12.985-22.498C78.811,351.532,83.784,342.912,91.807,338.269z M104.777,177.195
			c-4.579,0-9.064-1.201-12.988-3.483c-8.006-4.631-12.978-13.247-12.978-22.483c0-14.318,11.648-25.966,25.966-25.966
			s25.966,11.648,25.966,25.966S119.095,177.195,104.777,177.195z M238.738,173.705c-0.01,0.005-0.02,0.011-0.028,0.016
			c-3.906,2.272-8.387,3.472-12.957,3.472c-14.319,0.001-25.967-11.647-25.967-25.965s11.648-25.966,25.966-25.966
			c4.568,0,9.054,1.199,12.979,3.474c8.011,4.629,12.987,13.248,12.987,22.492C251.717,160.476,246.743,169.088,238.738,173.705z
			 M407.231,230.03c4.563,0,9.039,1.201,12.982,3.493c8.01,4.609,12.984,13.221,12.984,22.473c0,9.249-4.978,17.867-12.991,22.489
			c-0.005,0.002-0.01,0.006-0.015,0.009c-3.918,2.269-8.398,3.469-12.96,3.469c-14.318,0-25.966-11.648-25.966-25.966
			C381.265,241.678,392.913,230.03,407.231,230.03z M273.286,233.502c3.907-2.272,8.387-3.474,12.957-3.474
			c14.319,0.001,25.967,11.649,25.967,25.967c0,14.318-11.648,25.966-25.966,25.966c-4.569,0-9.054-1.199-12.976-3.471
			c-8.012-4.636-12.99-13.255-12.99-22.495C260.278,246.755,265.253,238.141,273.286,233.502z M238.73,383.267
			c-0.002,0.001-0.005,0.003-0.007,0.005c-3.918,2.269-8.404,3.469-12.972,3.469c-14.318,0-25.966-11.648-25.966-25.966
			c0-14.324,11.648-25.978,25.966-25.978c4.57,0,9.051,1.201,12.987,3.489c8.006,4.618,12.979,13.234,12.979,22.489
			C251.717,370.019,246.741,378.638,238.73,383.267z M286.244,491.508c-14.318,0-25.966-11.648-25.966-25.966
			c0-9.24,4.978-17.86,12.994-22.497c3.918-2.269,8.403-3.469,12.972-3.469c14.318,0,25.966,11.648,25.966,25.966
			S300.562,491.508,286.244,491.508z M407.231,491.508c-14.318,0-25.966-11.648-25.966-25.966s11.648-25.966,25.966-25.966
			c4.561,0,9.042,1.199,12.974,3.477c8.013,4.622,12.991,13.239,12.991,22.489C433.196,479.86,421.549,491.508,407.231,491.508z
			 M438.125,393.693l-17.181,29.753c-4.408-1.435-9.036-2.191-13.712-2.191c-21.281,0.001-39.098,15.089-43.328,35.127h-34.331
			c-4.232-20.039-22.049-35.126-43.328-35.126c-4.684,0-9.315,0.756-13.725,2.191l-17.181-29.745
			c9.222-8.311,14.699-20.271,14.699-32.927c0-12.673-5.481-24.638-14.695-32.935l17.178-29.75c4.41,1.435,9.042,2.191,13.724,2.191
			c21.279,0,39.096-15.087,43.328-35.126h34.331c4.232,20.039,22.049,35.126,43.327,35.126c4.678,0,9.305-0.755,13.713-2.191
			l17.181,29.754c-9.222,8.309-14.698,20.268-14.698,32.93C423.427,373.43,428.902,385.386,438.125,393.693z M467.712,386.741
			c-4.57,0-9.051-1.201-12.957-3.474c-0.008-0.005-0.017-0.01-0.024-0.015c-8.008-4.624-12.983-13.237-12.983-22.479
			c0-9.249,4.974-17.867,13.007-22.506c3.906-2.272,8.387-3.472,12.957-3.472c14.318,0,25.966,11.654,25.966,25.978
			C493.677,375.093,482.029,386.741,467.712,386.741z"/>
	</g>
</g>
<g>
</g>
<g>
</g>
<g>
</g>
<g>
</g>
<g>
</g>
<g>
</g>
<g>
</g>
<g>
</g>
<g>
</g>
<g>
</g>
<g>
</g>
<g>
</g>
<g>
</g>
<g>
</g>
<g>
</g>
</svg>
