<svg id="Layer_3" enable-background="new 42 153 218 4" height="80" viewBox="0 0 64 64" fill="#2a99da" width="80" xmlns="http://www.w3.org/2000/svg"><path d="m25.579 35.957c-.359.6-.579 1.294-.579 2.043 0 2.206 1.794 4 4 4 1.201 0 2.266-.542 3-1.382.734.84 1.799 1.382 3 1.382 2.206 0 4-1.794 4-4 0-.749-.22-1.443-.579-2.043 2.006-.213 3.579-1.895 3.579-3.957s-1.573-3.744-3.579-3.957c.359-.6.579-1.294.579-2.043 0-2.206-1.794-4-4-4-1.201 0-2.266.542-3 1.382-.734-.84-1.799-1.382-3-1.382-2.206 0-4 1.794-4 4 0 .749.22 1.443.579 2.043-2.006.213-3.579 1.895-3.579 3.957s1.573 3.744 3.579 3.957zm6.421-5.957c1.103 0 2 .897 2 2s-.897 2-2 2-2-.897-2-2 .897-2 2-2zm-3 10c-1.103 0-2-.897-2-2s.897-2 2-2 2 .897 2 2-.897 2-2 2zm6 0c-1.103 0-2-.897-2-2s.897-2 2-2 2 .897 2 2-.897 2-2 2zm5-8c0 1.103-.897 2-2 2s-2-.897-2-2 .897-2 2-2 2 .897 2 2zm-5-8c1.103 0 2 .897 2 2s-.897 2-2 2-2-.897-2-2 .897-2 2-2zm-6 0c1.103 0 2 .897 2 2s-.897 2-2 2-2-.897-2-2 .897-2 2-2zm-3 6c1.103 0 2 .897 2 2s-.897 2-2 2-2-.897-2-2 .897-2 2-2z"/><path d="m3 25c0 2.206 1.794 4 4 4 .422 0 .821-.084 1.203-.205.654 1.069 1.353 2.14 2.097 3.206-8.292 11.96-10.583 22.71-5.797 27.496 1.664 1.665 4.05 2.475 6.957 2.475 5.452 0 12.74-2.858 20.54-8.267 7.801 5.41 15.089 8.267 20.54 8.267 2.907 0 5.293-.81 6.957-2.475 4.786-4.786 2.495-15.538-5.797-27.497 8.293-11.96 10.583-22.711 5.797-27.497-3.371-3.371-9.519-3.341-17.357.048-.733-.937-1.861-1.551-3.14-1.551-2.206 0-4 1.794-4 4 0 .422.084.821.205 1.203-1.072.656-2.143 1.355-3.206 2.097-11.96-8.292-22.712-10.582-27.496-5.797-3.371 3.372-3.34 9.519.048 17.358-.937.732-1.551 1.86-1.551 3.139zm2 0c0-1.103.897-2 2-2s2 .897 2 2-.897 2-2 2-2-.897-2-2zm.917 33.083c-3.935-3.935-1.654-13.629 5.627-24.357 2.532 3.452 5.426 6.837 8.659 10.07 3.232 3.233 6.618 6.127 10.071 8.659-10.727 7.281-20.421 9.563-24.357 5.628zm26.083-45.329c3.56 2.563 7.052 5.533 10.382 8.864 3.332 3.331 6.301 6.823 8.863 10.383-2.562 3.559-5.531 7.051-8.863 10.383-3.33 3.331-6.822 6.3-10.383 8.864-3.56-2.563-7.052-5.533-10.383-8.864s-6.299-6.822-8.863-10.383c2.562-3.559 5.531-7.051 8.863-10.383 3.33-3.331 6.821-6.299 10.384-8.864zm26.083 45.329c-3.934 3.936-13.628 1.654-24.358-5.627 3.454-2.533 6.84-5.427 10.071-8.659 3.234-3.234 6.128-6.619 8.659-10.071 7.282 10.727 9.563 20.422 5.628 24.357zm0-52.166c3.935 3.935 1.654 13.629-5.627 24.357-2.532-3.452-5.426-6.837-8.659-10.07-3.232-3.233-6.618-6.128-10.072-8.66.845-.575 1.691-1.124 2.537-1.642.717.676 1.677 1.098 2.738 1.098 2.206 0 4-1.794 4-4 0-.211-.031-.414-.062-.616 6.937-2.996 12.431-3.18 15.145-.467zm-19.083-.917c1.103 0 2 .897 2 2s-.897 2-2 2-2-.897-2-2 .897-2 2-2zm-33.083.917c3.936-3.935 13.63-1.653 24.358 5.627-3.454 2.533-6.84 5.427-10.071 8.659-3.234 3.234-6.129 6.62-8.66 10.072-.577-.847-1.126-1.692-1.642-2.537.675-.716 1.098-1.677 1.098-2.738 0-2.206-1.794-4-4-4-.211 0-.414.031-.617.062-2.995-6.937-3.178-12.433-.466-15.145z"/></svg>