<?xml version="1.0" encoding="UTF-8" standalone="no"?>
<!-- Created with Inkscape (http://www.inkscape.org/) -->

<svg
   xmlns:dc="http://purl.org/dc/elements/1.1/"
   xmlns:cc="http://creativecommons.org/ns#"
   xmlns:rdf="http://www.w3.org/1999/02/22-rdf-syntax-ns#"
   xmlns:svg="http://www.w3.org/2000/svg"
   xmlns="http://www.w3.org/2000/svg"
   xmlns:sodipodi="http://sodipodi.sourceforge.net/DTD/sodipodi-0.dtd"
   xmlns:inkscape="http://www.inkscape.org/namespaces/inkscape"
   width="33.652283mm"
   height="25.239166mm"
   viewBox="0 0 33.652283 25.239166"
   version="1.1"
   id="svg8"
   inkscape:version="0.92.5 (2060ec1f9f, 2020-04-08)"
   sodipodi:docname="Logo.svg">
  <defs
     id="defs2" />
  <sodipodi:namedview
     id="base"
     pagecolor="#ffffff"
     bordercolor="#666666"
     borderopacity="1.0"
     inkscape:pageopacity="0.0"
     inkscape:pageshadow="2"
     inkscape:zoom="3.959798"
     inkscape:cx="-16.160643"
     inkscape:cy="47.52521"
     inkscape:document-units="mm"
     inkscape:current-layer="layer1"
     showgrid="false"
     fit-margin-top="0"
     fit-margin-left="0"
     fit-margin-right="0"
     fit-margin-bottom="0"
     inkscape:window-width="2880"
     inkscape:window-height="1655"
     inkscape:window-x="0"
     inkscape:window-y="0"
     inkscape:window-maximized="1" />
  <metadata
     id="metadata5">
    <rdf:RDF>
      <cc:Work
         rdf:about="">
        <dc:format>image/svg+xml</dc:format>
        <dc:type
           rdf:resource="http://purl.org/dc/dcmitype/StillImage" />
        <dc:title></dc:title>
      </cc:Work>
    </rdf:RDF>
  </metadata>
  <g
     inkscape:label="Layer 1"
     inkscape:groupmode="layer"
     id="layer1"
     transform="translate(-137.38814,-127.14232)">
    <g
       transform="matrix(0,-0.35277777,-0.35277777,0,427.08424,202.56529)"
       id="g22788">
      <path
         inkscape:connector-curvature="0"
         id="path24"
         style="fill:#393536;fill-opacity:1;fill-rule:nonzero;stroke:none"
         d="m 142.342,819.319 h 6.459 v -1.128 h -6.459 z" />
      <g
         transform="translate(147.0688,814.5389)"
         id="g26">
        <path
           inkscape:connector-curvature="0"
           id="path28"
           style="fill:#393536;fill-opacity:1;fill-rule:nonzero;stroke:none"
           d="M 0,0 H -4.727 V 1.075 H 1.137 C 1.344,1.075 1.509,1.023 1.63,0.919 1.751,0.816 1.812,0.675 1.812,0.498 1.812,0.415 1.794,0.334 1.759,0.258 1.724,0.181 1.664,0.101 1.581,0.018 L -2.941,-4.54 h 4.727 v -1.075 h -5.917 c -0.214,0 -0.379,0.052 -0.498,0.156 -0.118,0.103 -0.178,0.238 -0.178,0.404 0,0.183 0.08,0.355 0.24,0.515 z" />
      </g>
      <g
         transform="translate(142.3423,806.41)"
         id="g30">
        <path
           inkscape:connector-curvature="0"
           id="path32"
           style="fill:#393536;fill-opacity:1;fill-rule:nonzero;stroke:none"
           d="m 0,0 h 1.128 v -4.842 c 0,-0.302 0.077,-0.534 0.231,-0.698 0.154,-0.163 0.359,-0.244 0.613,-0.244 0.278,0 0.487,0.081 0.627,0.244 0.139,0.164 0.209,0.396 0.209,0.698 v 2.967 c 0,0.302 0.045,0.576 0.137,0.822 0.092,0.246 0.219,0.453 0.382,0.622 0.163,0.169 0.357,0.299 0.582,0.391 0.225,0.092 0.471,0.138 0.737,0.138 0.261,0 0.502,-0.043 0.725,-0.129 0.222,-0.086 0.413,-0.214 0.573,-0.382 0.16,-0.169 0.285,-0.378 0.377,-0.627 0.092,-0.249 0.138,-0.533 0.138,-0.853 V -6.53 H 5.331 v 4.637 c 0,0.261 -0.07,0.462 -0.209,0.604 -0.14,0.143 -0.333,0.214 -0.582,0.214 -0.249,0 -0.441,-0.072 -0.578,-0.218 C 3.826,-1.438 3.758,-1.635 3.758,-1.884 V -4.842 C 3.758,-5.5 3.604,-5.999 3.296,-6.339 2.988,-6.68 2.52,-6.85 1.892,-6.85 1.62,-6.85 1.368,-6.809 1.137,-6.726 0.906,-6.643 0.706,-6.518 0.538,-6.353 0.369,-6.187 0.237,-5.978 0.142,-5.726 0.047,-5.474 0,-5.18 0,-4.842 Z" />
      </g>
      <g
         transform="translate(142.3423,795.1005)"
         id="g34">
        <path
           inkscape:connector-curvature="0"
           id="path36"
           style="fill:#393536;fill-opacity:1;fill-rule:nonzero;stroke:none"
           d="M 0,0 H 5.331 V 2.452 H 6.459 V -3.581 H 5.331 v 2.453 H 0 Z" />
      </g>
      <g
         transform="translate(142.3423,783.3553)"
         id="g38">
        <path
           inkscape:connector-curvature="0"
           id="path40"
           style="fill:#393536;fill-opacity:1;fill-rule:nonzero;stroke:none"
           d="M 0,0 1.794,1.635 V 4.051 H 2.79 V 1.359 C 2.79,0.951 2.901,0.643 3.123,0.435 3.345,0.228 3.666,0.124 4.087,0.124 c 0.42,0 0.733,0.108 0.937,0.325 0.205,0.216 0.307,0.519 0.307,0.91 V 4.877 H 0 v 1.12 H 6.459 V 1.359 C 6.459,0.992 6.404,0.663 6.294,0.373 6.185,0.083 6.028,-0.163 5.824,-0.364 5.619,-0.566 5.372,-0.72 5.082,-0.826 c -0.29,-0.107 -0.616,-0.16 -0.978,-0.16 -0.539,0 -0.99,0.117 -1.354,0.351 -0.365,0.234 -0.627,0.561 -0.787,0.981 L 0,-1.599 Z" />
      </g>
      <g
         transform="translate(148.8013,774.1864)"
         id="g42">
        <path
           inkscape:connector-curvature="0"
           id="path44"
           style="fill:#393536;fill-opacity:1;fill-rule:nonzero;stroke:none"
           d="m 0,0 v -1.102 h -3.607 c -0.497,0 -0.932,0.066 -1.302,0.196 -0.37,0.13 -0.676,0.335 -0.919,0.613 -0.243,0.278 -0.423,0.638 -0.542,1.079 -0.119,0.442 -0.178,0.976 -0.178,1.604 0,0.622 0.059,1.153 0.178,1.595 0.119,0.441 0.299,0.801 0.542,1.079 0.243,0.278 0.549,0.483 0.919,0.613 0.37,0.131 0.805,0.196 1.302,0.196 H 0 V 4.709 h -3.607 c -0.326,0 -0.604,-0.04 -0.835,-0.12 C -4.673,4.509 -4.863,4.379 -5.011,4.198 -5.159,4.018 -5.267,3.776 -5.335,3.474 -5.403,3.172 -5.437,2.799 -5.437,2.354 -5.437,1.91 -5.403,1.537 -5.335,1.235 -5.267,0.933 -5.159,0.692 -5.011,0.511 -4.863,0.331 -4.673,0.2 -4.442,0.12 -4.211,0.04 -3.933,0 -3.607,0 Z" />
      </g>
      <g
         transform="translate(142.3423,762.9569)"
         id="g46">
        <path
           inkscape:connector-curvature="0"
           id="path48"
           style="fill:#393536;fill-opacity:1;fill-rule:nonzero;stroke:none"
           d="M 0,0 4.54,1.235 0.337,3.065 C 0.201,3.13 0.096,3.208 0.022,3.3 c -0.074,0.093 -0.111,0.206 -0.111,0.343 0,0.266 0.142,0.459 0.426,0.577 L 4.54,6.042 0,7.276 V 8.387 L 6.077,6.725 C 6.385,6.648 6.539,6.462 6.539,6.166 6.539,6.047 6.506,5.936 6.441,5.833 6.376,5.729 6.281,5.65 6.157,5.597 L 1.59,3.607 6.157,1.617 C 6.412,1.51 6.539,1.33 6.539,1.075 6.539,0.802 6.385,0.622 6.077,0.533 L 0,-1.12 Z" />
      </g>
      <path
         inkscape:connector-curvature="0"
         id="path50"
         style="fill:#393536;fill-opacity:1;fill-rule:nonzero;stroke:none"
         d="m 145.15,757.724 h 0.95 v -3.581 h -0.95 z m -2.808,1.946 h 6.459 v -5.766 h -1.128 v 4.646 h -4.203 v -4.655 h -1.128 z" />
      <g
         transform="translate(147.0688,750.4564)"
         id="g52">
        <path
           inkscape:connector-curvature="0"
           id="path54"
           style="fill:#393536;fill-opacity:1;fill-rule:nonzero;stroke:none"
           d="M 0,0 H -4.727 V 1.075 H 1.137 C 1.344,1.075 1.509,1.023 1.63,0.92 1.751,0.816 1.812,0.675 1.812,0.498 1.812,0.415 1.794,0.335 1.759,0.258 1.724,0.181 1.664,0.101 1.581,0.018 L -2.941,-4.54 h 4.727 v -1.075 h -5.917 c -0.214,0 -0.379,0.052 -0.498,0.156 -0.118,0.104 -0.178,0.238 -0.178,0.404 0,0.184 0.08,0.355 0.24,0.515 z" />
      </g>
      <g
         transform="translate(142.3423,740.2577)"
         id="g56">
        <path
           inkscape:connector-curvature="0"
           id="path58"
           style="fill:#393536;fill-opacity:1;fill-rule:nonzero;stroke:none"
           d="M 0,0 H 5.331 V 2.452 H 6.459 V -3.581 H 5.331 v 2.453 H 0 Z" />
      </g>
      <g
         transform="translate(142.3423,734.5096)"
         id="g60">
        <path
           inkscape:connector-curvature="0"
           id="path62"
           style="fill:#393536;fill-opacity:1;fill-rule:nonzero;stroke:none"
           d="m 0,0 h 1.128 v -4.842 c 0,-0.302 0.077,-0.534 0.231,-0.698 0.154,-0.162 0.359,-0.244 0.613,-0.244 0.278,0 0.487,0.082 0.627,0.244 0.139,0.164 0.209,0.396 0.209,0.698 v 2.967 c 0,0.302 0.045,0.576 0.137,0.822 0.092,0.246 0.219,0.453 0.382,0.622 0.163,0.169 0.357,0.299 0.582,0.391 0.225,0.092 0.471,0.138 0.737,0.138 0.261,0 0.502,-0.043 0.725,-0.129 0.222,-0.086 0.413,-0.213 0.573,-0.382 0.16,-0.169 0.285,-0.378 0.377,-0.627 0.092,-0.249 0.138,-0.533 0.138,-0.852 V -6.53 H 5.331 v 4.638 c 0,0.26 -0.07,0.462 -0.209,0.603 -0.14,0.143 -0.333,0.214 -0.582,0.214 -0.249,0 -0.441,-0.072 -0.578,-0.217 C 3.826,-1.437 3.758,-1.635 3.758,-1.883 V -4.842 C 3.758,-5.5 3.604,-5.999 3.296,-6.339 2.988,-6.68 2.52,-6.85 1.892,-6.85 1.62,-6.85 1.368,-6.808 1.137,-6.726 0.906,-6.643 0.706,-6.518 0.538,-6.352 0.369,-6.187 0.237,-5.978 0.142,-5.726 0.047,-5.474 0,-5.18 0,-4.842 Z" />
      </g>
      <g
         transform="translate(150.8838,813.7948)"
         id="g64">
        <path
           inkscape:connector-curvature="0"
           id="path66"
           style="fill:#393536;fill-opacity:1;fill-rule:nonzero;stroke:none"
           d="m 0,0 c 0,1.421 0.118,2.606 0.355,3.553 0.237,0.948 0.616,1.706 1.137,2.274 0.521,0.569 1.203,0.971 2.047,1.208 0.843,0.237 1.88,0.356 3.112,0.356 H 19.385 V 3.098 H 6.822 C 6.253,3.098 5.774,3.046 5.386,2.942 4.998,2.838 4.676,2.653 4.42,2.388 4.164,2.123 3.979,1.767 3.866,1.322 3.752,0.877 3.695,0.312 3.695,-0.37 V -11.881 H 0 Z" />
      </g>
      <g
         transform="translate(161.7417,783.9774)"
         id="g68">
        <path
           inkscape:connector-curvature="0"
           id="path70"
           style="fill:#393536;fill-opacity:1;fill-rule:nonzero;stroke:none"
           d="M 0,0 C 0.512,0 0.853,0.128 1.023,0.384 1.194,0.64 1.279,1.09 1.279,1.734 v 7.049 c 0,0.531 -0.024,0.977 -0.071,1.336 -0.047,0.36 -0.156,0.65 -0.327,0.867 -0.17,0.218 -0.417,0.375 -0.739,0.469 -0.322,0.095 -0.758,0.142 -1.307,0.142 H -1.99 V 0 Z m -4.718,11.597 h -0.711 c -0.474,0 -0.853,-0.037 -1.137,-0.113 C -6.85,11.408 -7.073,11.271 -7.234,11.072 -7.395,10.873 -7.504,10.607 -7.561,10.275 -7.618,9.944 -7.646,9.532 -7.646,9.039 V 4.037 h -3.212 v 5.002 c 0,2.445 0.464,4.189 1.393,5.231 0.928,1.042 2.416,1.563 4.463,1.563 h 3.552 c 1.118,0 2.061,-0.109 2.829,-0.327 0.767,-0.218 1.383,-0.597 1.848,-1.137 0.463,-0.54 0.8,-1.255 1.008,-2.146 C 4.444,11.332 4.548,10.205 4.548,8.84 V 1.393 C 4.548,0.294 4.444,-0.621 4.235,-1.35 4.027,-2.08 3.738,-2.658 3.369,-3.084 2.999,-3.51 2.553,-3.809 2.033,-3.979 1.511,-4.15 0.947,-4.235 0.341,-4.235 h -5.059 z" />
      </g>
      <g
         transform="translate(150.8838,776.8143)"
         id="g72">
        <path
           inkscape:connector-curvature="0"
           id="path74"
           style="fill:#393536;fill-opacity:1;fill-rule:nonzero;stroke:none"
           d="m 0,0 h 8.925 c 1.156,0 2.141,-0.132 2.956,-0.398 0.815,-0.265 1.483,-0.686 2.004,-1.265 0.521,-0.578 0.905,-1.321 1.152,-2.231 0.246,-0.91 0.369,-2.018 0.369,-3.326 v -2.757 h -3.439 v 2.644 c 0,0.587 -0.048,1.08 -0.143,1.478 -0.095,0.397 -0.255,0.715 -0.483,0.952 -0.227,0.237 -0.54,0.407 -0.938,0.511 -0.398,0.105 -0.9,0.157 -1.506,0.157 H 0 Z" />
      </g>
      <g
         transform="translate(150.8838,751.0907)"
         id="g76">
        <path
           inkscape:connector-curvature="0"
           id="path78"
           style="fill:#393536;fill-opacity:1;fill-rule:nonzero;stroke:none"
           d="M 0,0 7.276,8.954 H 0 v 4.263 H 20.38 V 8.954 H 8.271 L 15.406,0.057 V -5.458 L 7.987,4.122 0,-5.713 Z" />
      </g>
      <path
         inkscape:connector-curvature="0"
         id="path80"
         style="fill:#393536;fill-opacity:1;fill-rule:nonzero;stroke:none"
         d="m 150.884,743.53 h 15.008 v -4.321 h -15.008 z m 16.287,-1.45 c 0,0.531 0.104,0.906 0.313,1.123 0.208,0.218 0.539,0.327 0.995,0.327 h 1.648 c 0.455,0 0.782,-0.109 0.981,-0.327 0.199,-0.217 0.298,-0.592 0.298,-1.123 v -1.393 c 0,-0.549 -0.099,-0.933 -0.298,-1.151 -0.199,-0.217 -0.526,-0.327 -0.981,-0.327 h -1.648 c -0.456,0 -0.787,0.11 -0.995,0.327 -0.209,0.218 -0.313,0.602 -0.313,1.151 z" />
      <g
         transform="translate(150.8838,734.9745)"
         id="g82">
        <path
           inkscape:connector-curvature="0"
           id="path84"
           style="fill:#393536;fill-opacity:1;fill-rule:nonzero;stroke:none"
           d="m 0,0 h 11.967 v 2.16 h 3.439 V 0 h 4.349 V -4.32 H 15.406 V -9.181 H 11.967 V -4.32 H 0 Z" />
      </g>
      <g
         transform="translate(197.793,765.3177)"
         id="g86">
        <path
           inkscape:connector-curvature="0"
           id="path88"
           style="fill:#393536;fill-opacity:1;fill-rule:nonzero;stroke:none"
           d="M 0,0 C 0.025,1.037 0.905,1.89 1.971,1.911 3.122,1.934 3.976,1.068 3.947,-0.09 3.918,-1.196 3.1,-2.011 2.015,-2.013 0.887,-2.014 -0.027,-1.101 0,0 m -13.168,-1.988 v 3.967 h 3.967 5.909 2.639 C -1.069,1.427 -1.316,0.74 -1.316,-0.004 c 0,-0.744 0.247,-1.431 0.663,-1.984 z m 0,5.29 V 15.154 H 3.974 V 11.187 H 0.006 -6.393 -9.201 V 3.302 Z m 10.126,-14.893 6.758,6.758 c -0.079,0.28 -0.125,0.581 -0.133,0.902 -0.001,0.022 -0.001,0.043 -0.001,0.065 0,0.15 0.013,0.302 0.041,0.465 0.21,1.234 1.267,2.297 2.512,2.527 0.202,0.038 0.404,0.053 0.598,0.046 0.285,-0.01 0.564,-0.066 0.831,-0.158 0.151,-0.052 0.298,-0.115 0.44,-0.19 0.031,0.302 0.1,0.583 0.207,0.838 0.256,0.61 0.717,1.069 1.318,1.317 l 3.77,3.771 c 0.859,0.858 0.859,2.251 0,3.11 L -3.042,24.201 c -0.859,0.859 -2.251,0.859 -3.11,0 L -22.494,7.86 c -0.859,-0.859 -0.859,-2.252 0,-3.11 l 16.342,-16.341 c 0.859,-0.859 2.251,-0.859 3.11,0" />
      </g>
      <g
         transform="translate(210.811,761.2797)"
         id="g90">
        <path
           inkscape:connector-curvature="0"
           id="path92"
           style="fill:#393536;fill-opacity:1;fill-rule:nonzero;stroke:none"
           d="M 0,0 C -0.067,-0.987 0.459,-1.579 1.436,-1.63 2.352,-1.678 2.917,-1.154 2.981,-0.245 3.05,0.74 2.451,1.247 1.543,1.457 0.667,1.342 0.062,0.919 0,0" />
      </g>
      <g
         transform="translate(207.1016,763.9008)"
         id="g94">
        <path
           inkscape:connector-curvature="0"
           id="path96"
           style="fill:#393536;fill-opacity:1;fill-rule:nonzero;stroke:none"
           d="M 0,0 C -0.045,-0.896 0.503,-1.319 1.301,-1.495 2.098,-1.373 2.646,-0.924 2.67,-0.157 2.697,0.664 2.226,1.276 1.333,1.283 0.532,1.29 0.041,0.813 0,0" />
      </g>
      <g
         transform="translate(206.2114,761.35)"
         id="g98">
        <path
           inkscape:connector-curvature="0"
           id="path100"
           style="fill:#393536;fill-opacity:1;fill-rule:nonzero;stroke:none"
           d="M 0,0 C 0.089,0.876 -0.831,1.786 -1.731,1.818 -1.836,1.822 -1.94,1.812 -2.043,1.793 -2.737,1.665 -3.372,1.05 -3.492,0.345 -3.507,0.255 -3.516,0.165 -3.514,0.072 -3.485,-1.013 -2.866,-1.593 -1.817,-1.739 -0.725,-1.648 -0.107,-1.046 0,0" />
      </g>
    </g>
  </g>
</svg>
